<?xml version="1.0" encoding="utf-8"?>
<!-- Generator: Adobe Illustrator 24.0.0, SVG Export Plug-In . SVG Version: 6.00 Build 0)  -->
<svg version="1.1" id="Layer_1" xmlns="http://www.w3.org/2000/svg" xmlns:xlink="http://www.w3.org/1999/xlink" x="0px" y="0px"
	 viewBox="0 0 1944 1728" style="enable-background:new 0 0 1944 1728;" xml:space="preserve">
<style type="text/css">
	.st0{fill:none;stroke:#0000FF;stroke-miterlimit:10;}
	.st1{fill:#FFFFFF;stroke:#FF0000;stroke-miterlimit:10;}
	.st2{fill:none;stroke:#FF0000;stroke-miterlimit:10;}
	.st3{fill:none;stroke:#000000;stroke-miterlimit:10;}
	.st4{fill:none;stroke:#00FF00;stroke-miterlimit:10;}
</style>
<rect x="64.8" y="349.6" class="st0" width="1814.4" height="1306.7"/>
<circle class="st0" cx="1668.2" cy="1156.2" r="147.6"/>
<g>
	<g>
		<line class="st1" x1="72" y1="384.9" x2="1872" y2="384.9"/>
		<line class="st2" x1="72" y1="384.9" x2="1872" y2="384.9"/>
	</g>
	<g>
		<line class="st1" x1="72" y1="380.6" x2="1872" y2="380.6"/>
		<line class="st2" x1="72" y1="380.6" x2="1872" y2="380.6"/>
	</g>
	<g>
		<line class="st1" x1="72" y1="376.4" x2="1872" y2="376.4"/>
		<line class="st2" x1="72" y1="376.4" x2="1872" y2="376.4"/>
	</g>
	<g>
		<line class="st1" x1="72" y1="372.1" x2="1872" y2="372.1"/>
		<line class="st2" x1="72" y1="372.1" x2="1872" y2="372.1"/>
	</g>
	<g>
		<line class="st1" x1="72" y1="367.9" x2="1872" y2="367.9"/>
		<line class="st2" x1="72" y1="367.9" x2="1872" y2="367.9"/>
	</g>
	<g>
		<line class="st1" x1="72" y1="363.6" x2="1872" y2="363.6"/>
		<line class="st2" x1="72" y1="363.6" x2="1872" y2="363.6"/>
	</g>
	<g>
		<line class="st1" x1="72" y1="359.4" x2="1872" y2="359.4"/>
		<line class="st2" x1="72" y1="359.4" x2="1872" y2="359.4"/>
	</g>
	<g>
		<line class="st1" x1="72" y1="355.1" x2="1872" y2="355.1"/>
		<line class="st2" x1="72" y1="355.1" x2="1872" y2="355.1"/>
	</g>
</g>
<g>
	<g>
		<line class="st1" x1="72" y1="1651.1" x2="1872" y2="1651.1"/>
		<line class="st2" x1="72" y1="1651.1" x2="1872" y2="1651.1"/>
	</g>
	<g>
		<line class="st1" x1="72" y1="1646.9" x2="1872" y2="1646.9"/>
		<line class="st2" x1="72" y1="1646.9" x2="1872" y2="1646.9"/>
	</g>
	<g>
		<line class="st1" x1="72" y1="1642.6" x2="1872" y2="1642.6"/>
		<line class="st2" x1="72" y1="1642.6" x2="1872" y2="1642.6"/>
	</g>
	<g>
		<line class="st1" x1="72" y1="1638.4" x2="1872" y2="1638.4"/>
		<line class="st2" x1="72" y1="1638.4" x2="1872" y2="1638.4"/>
	</g>
	<g>
		<line class="st1" x1="72" y1="1634.1" x2="1872" y2="1634.1"/>
		<line class="st2" x1="72" y1="1634.1" x2="1872" y2="1634.1"/>
	</g>
	<g>
		<line class="st1" x1="72" y1="1629.9" x2="1872" y2="1629.9"/>
		<line class="st2" x1="72" y1="1629.9" x2="1872" y2="1629.9"/>
	</g>
	<g>
		<line class="st1" x1="72" y1="1625.6" x2="1872" y2="1625.6"/>
		<line class="st2" x1="72" y1="1625.6" x2="1872" y2="1625.6"/>
	</g>
	<g>
		<line class="st1" x1="72" y1="1621.4" x2="1872" y2="1621.4"/>
		<line class="st2" x1="72" y1="1621.4" x2="1872" y2="1621.4"/>
	</g>
</g>
<g>
	<line class="st1" x1="101.8" y1="1621.4" x2="101.8" y2="384.9"/>
	<line class="st2" x1="101.8" y1="1621.4" x2="101.8" y2="384.9"/>
</g>
<g>
	<line class="st1" x1="97.5" y1="1621.4" x2="97.5" y2="384.9"/>
	<line class="st2" x1="97.5" y1="1621.4" x2="97.5" y2="384.9"/>
</g>
<g>
	<line class="st1" x1="93.3" y1="1621.4" x2="93.3" y2="384.9"/>
	<line class="st2" x1="93.3" y1="1621.4" x2="93.3" y2="384.9"/>
</g>
<g>
	<line class="st1" x1="89" y1="1621.4" x2="89" y2="384.9"/>
	<line class="st2" x1="89" y1="1621.4" x2="89" y2="384.9"/>
</g>
<g>
	<line class="st1" x1="84.8" y1="1621.4" x2="84.8" y2="384.9"/>
	<line class="st2" x1="84.8" y1="1621.4" x2="84.8" y2="384.9"/>
</g>
<g>
	<line class="st1" x1="80.5" y1="1621.4" x2="80.5" y2="384.9"/>
	<line class="st2" x1="80.5" y1="1621.4" x2="80.5" y2="384.9"/>
</g>
<g>
	<line class="st1" x1="76.3" y1="1621.4" x2="76.3" y2="384.9"/>
	<line class="st2" x1="76.3" y1="1621.4" x2="76.3" y2="384.9"/>
</g>
<g>
	<line class="st1" x1="72" y1="1621.4" x2="72" y2="384.9"/>
	<line class="st2" x1="72" y1="1621.4" x2="72" y2="384.9"/>
</g>
<g>
	<g>
		<line class="st1" x1="1871.9" y1="1621.4" x2="1871.9" y2="384.9"/>
		<line class="st2" x1="1871.9" y1="1621.4" x2="1871.9" y2="384.9"/>
	</g>
	<g>
		<line class="st1" x1="1867.7" y1="1621.4" x2="1867.7" y2="384.9"/>
		<line class="st2" x1="1867.7" y1="1621.4" x2="1867.7" y2="384.9"/>
	</g>
	<g>
		<line class="st1" x1="1863.4" y1="1621.4" x2="1863.4" y2="384.9"/>
		<line class="st2" x1="1863.4" y1="1621.4" x2="1863.4" y2="384.9"/>
	</g>
	<g>
		<line class="st1" x1="1859.2" y1="1621.4" x2="1859.2" y2="384.9"/>
		<line class="st2" x1="1859.2" y1="1621.4" x2="1859.2" y2="384.9"/>
	</g>
	<g>
		<line class="st1" x1="1854.9" y1="1621.4" x2="1854.9" y2="384.9"/>
		<line class="st2" x1="1854.9" y1="1621.4" x2="1854.9" y2="384.9"/>
	</g>
	<g>
		<line class="st1" x1="1850.7" y1="1621.4" x2="1850.7" y2="384.9"/>
		<line class="st2" x1="1850.7" y1="1621.4" x2="1850.7" y2="384.9"/>
	</g>
	<g>
		<line class="st1" x1="1846.4" y1="1621.4" x2="1846.4" y2="384.9"/>
		<line class="st2" x1="1846.4" y1="1621.4" x2="1846.4" y2="384.9"/>
	</g>
	<g>
		<line class="st1" x1="1842.1" y1="1621.4" x2="1842.1" y2="384.9"/>
		<line class="st2" x1="1842.1" y1="1621.4" x2="1842.1" y2="384.9"/>
	</g>
</g>
<rect x="108" y="391.1" class="st0" width="1728" height="1224"/>
<rect class="st3" width="1944" height="1728"/>
<path class="st0" d="M64.8,1688.8"/>
<g>
	<rect x="1651.2" y="1300.1" class="st0" width="34" height="132.5"/>
	<path class="st0" d="M1685.2,1414.6v18h91.8c8.6,0,15.6,7,15.6,15.6v167h18v-182.5v-2.4c0-8.6-7-15.6-15.6-15.6H1685.2z"/>
</g>
<path class="st0" d="M1879.5,1673.3v-17h-28.8v45.3c0,3,2.4,5.4,5.4,5.4h23.4h32c6.5,0,11.8-5.3,11.8-11.8v-5.3
	c0-6.5-5.3-11.8-11.8-11.8h-27C1881.7,1678.3,1879.5,1676.1,1879.5,1673.3z"/>
<g>
	<path class="st4" d="M1643.6,1162.5h4.4v-14.3h-4.4v-3.8h13v3.8h-4.4v14.3h4.4v3.8h-13V1162.5z"/>
	<path class="st4" d="M1660.9,1144.4h4.3v8.6l6.8-8.6h4.9l-6.9,8.6l7.1,13.3h-4.8l-5.2-9.8l-1.9,2.4v7.4h-4.3V1144.4z"/>
	<path class="st4" d="M1677.2,1144.4h3.8l1.6,16.1l1.9-10.4h3.6l2.2,10.4l1.2-16.1h3.8l-2.5,21.9h-4l-2.5-11.5l-2.3,11.5h-4
		L1677.2,1144.4z"/>
</g>
</svg>
